<?xml version="1.0" encoding="UTF-8"?>
<svg width="24px" height="24px" viewBox="0 0 24 24" version="1.1" xmlns="http://www.w3.org/2000/svg" xmlns:xlink="http://www.w3.org/1999/xlink">
    <title>切片</title>
    <g id="页面-1" stroke="none" stroke-width="1" fill="none" fill-rule="evenodd">
        <g id="设计规范" transform="translate(-609.000000, -1416.000000)">
            <g id="刷新" transform="translate(609.000000, 1416.000000)">
                <rect id="矩形" fill="#FFFFFF" x="0" y="0" width="24" height="24" rx="2.66666667"></rect>
                <path d="M19.1858571,9.73214286 L15.9492857,9.73214286 C15.5378571,9.73214286 15.1995714,9.39385714 15.1995714,8.98242857 C15.1995714,8.571 15.5378571,8.23271429 15.9492857,8.23271429 L17.2475714,8.23271429 C16.0772857,6.57785714 14.1481429,5.499 11.963,5.499 C8.38814286,5.499 5.48985714,8.39728571 5.48985714,11.9721429 C5.48985714,15.547 8.38814286,18.4452857 11.963,18.4452857 C15.5378571,18.4452857 18.4361429,15.547 18.4361429,11.9721429 C18.4361429,11.5607143 18.7744286,11.2224286 19.1858571,11.2224286 C19.5972857,11.2224286 19.9355714,11.5607143 19.9355714,11.9721429 C19.9355714,16.3698571 16.3698571,19.9355714 11.9721429,19.9355714 C7.57442857,19.9355714 4.00871429,16.3698571 4.00871429,11.9721429 C4.00871429,7.57442857 7.57442857,4.00871429 11.9721429,4.00871429 C14.6418571,4.00871429 17.0007143,5.32528571 18.4452857,7.33671429 L18.4452857,6.00185714 C18.4452857,5.59042857 18.7835714,5.25214286 19.195,5.25214286 C19.6064286,5.25214286 19.9447143,5.59042857 19.9447143,6.00185714 L19.9447143,8.99157143 C19.9264286,9.403 19.5972857,9.73214286 19.1858571,9.73214286 Z" id="路径" fill="#999999" fill-rule="nonzero"></path>
            </g>
        </g>
    </g>
</svg>