<?xml version="1.0" encoding="UTF-8"?>
<svg width="24px" height="24px" viewBox="0 0 24 24" version="1.1" xmlns="http://www.w3.org/2000/svg" xmlns:xlink="http://www.w3.org/1999/xlink">
    <title>切片</title>
    <g id="页面-1" stroke="none" stroke-width="1" fill="none" fill-rule="evenodd">
        <g id="设计规范" transform="translate(-327.000000, -1416.000000)" fill-rule="nonzero">
            <g id="icon/no备份" transform="translate(327.000000, 1416.000000)">
                <rect id="矩形" fill="#000000" opacity="0" x="0" y="0" width="24" height="24"></rect>
                <path d="M19.2951128,19 L4.70488721,19 C4.31578947,19 4,18.6842291 4,18.2951542 L4,3.70484582 C4,3.31577094 4.31578947,3 4.70488721,3 L19.2951128,3 C19.6842105,3 20,3.31577092 20,3.70484582 L20,18.2942144 C20,18.6842291 19.6851504,19 19.2951128,19 Z M5.59022557,17.540802 L18.4646286,17.540802 L18.4646286,4.58936858 L5.59022557,4.58936858 L5.59022557,17.540802 Z" id="形状" fill="#0053D9"></path>
                <path d="M13.2251621,11.2939542 L15.5516603,8.96745601 C15.7874058,8.73171054 15.7874058,8.34991402 15.5516603,8.11416854 C15.3159148,7.87842307 14.9341183,7.87842307 14.6975791,8.11416854 L12.3710808,10.4406667 L10.0445826,8.11416854 C9.80883715,7.87842307 9.42704062,7.87842307 9.19050139,8.11416854 C8.95475592,8.34991402 8.95475592,8.73171054 9.19050139,8.96745601 L11.5169996,11.2939542 L9.19129515,13.6204524 C8.95554968,13.8561979 8.95554968,14.2379944 9.19129515,14.4737399 C9.30956477,14.5912158 9.46355338,14.6507474 9.61833577,14.6507474 C9.77311815,14.6507474 9.92710676,14.5920095 10.0453764,14.4737399 L12.3718746,12.1472417 L14.6983728,14.4737399 C14.8166424,14.5912158 14.970631,14.6507474 15.1254134,14.6507474 C15.2801958,14.6507474 15.4341844,14.5920095 15.552454,14.4737399 C15.7881995,14.2379944 15.7881995,13.8561979 15.552454,13.6204524 L13.2251621,11.2939542 L13.2251621,11.2939542 Z" id="路径" fill="#0053D9"></path>
            </g>
        </g>
    </g>
</svg>