<?xml version="1.0" encoding="UTF-8"?>
<svg width="24px" height="24px" viewBox="0 0 24 24" version="1.1" xmlns="http://www.w3.org/2000/svg" xmlns:xlink="http://www.w3.org/1999/xlink">
    <title>切片</title>
    <g id="页面-1" stroke="none" stroke-width="1" fill="none" fill-rule="evenodd">
        <g id="设计规范" transform="translate(-380.000000, -1416.000000)" fill-rule="nonzero">
            <g id="button/bianji/" transform="translate(380.000000, 1416.000000)">
                <rect id="矩形" fill="#000000" opacity="0" x="0" y="0" width="24" height="24"></rect>
                <path d="M8.97326726,14.8670666 C9.12895327,15.0275277 9.34300525,15.1180877 9.56659271,15.1180877 C9.79018018,15.1180877 10.0042322,15.0275277 10.1599182,14.8670666 L19.3464628,5.66816432 C19.5069409,5.51249482 19.5975105,5.29846554 19.5975105,5.07490179 C19.5975105,4.85133803 19.5069409,4.63730875 19.3464628,4.48163925 C19.1930963,4.32193443 18.9812364,4.23165922 18.7598039,4.23165922 C18.5383715,4.23165922 18.3265116,4.32193443 18.1731451,4.48163925 L8.97326726,13.6672098 C8.81201672,13.8251857 8.72114815,14.0414114 8.72114815,14.2671382 C8.72114815,14.492865 8.81201672,14.7090908 8.97326726,14.8670666 L8.97326726,14.8670666 Z M19.1597986,10.7342265 C18.6936801,10.7341696 18.3137597,11.108114 18.3064766,11.5741262 L18.3064766,18.3066562 L5.69331084,18.3066562 L5.69331084,5.69482781 L12.4265547,5.69482781 C12.66196,5.70956835 12.8929678,5.62622507 13.0647258,5.46458768 C13.2364837,5.3029503 13.3336705,5.07743726 13.3332093,4.84159629 C13.3336782,4.60928607 13.2378967,4.38715723 13.068636,4.2280185 C12.8993752,4.06887976 12.6717544,3.98694616 12.4398879,4.00169651 L4.83998885,4.00169651 C4.37607582,4.00169651 4,4.37773245 4,4.84159629 L4,19.1598877 C4.00232449,19.3828027 4.08792924,19.5967919 4.23999681,19.7598161 C4.40303826,19.9118676 4.61705016,19.9974632 4.83998885,19.9998969 L19.1597986,19.9998969 C19.3836738,20.0034281 19.5994503,19.9161084 19.7577749,19.7578006 C19.9160995,19.5994928 20.0034284,19.3837392 19.9998969,19.1598877 L19.9998969,11.5741262 C19.9998969,11.351371 19.9112889,11.1377392 19.7537604,10.9802274 C19.5962319,10.8227156 19.3825775,10.7342265 19.1597986,10.7342265 Z" id="形状" fill="#0053D9"></path>
            </g>
        </g>
    </g>
</svg>