<?xml version="1.0" encoding="UTF-8"?>
<svg width="24px" height="24px" viewBox="0 0 24 24" version="1.1" xmlns="http://www.w3.org/2000/svg" xmlns:xlink="http://www.w3.org/1999/xlink">
    <title>切片</title>
    <g id="页面-1" stroke="none" stroke-width="1" fill="none" fill-rule="evenodd">
        <g id="设计规范" transform="translate(-655.000000, -1416.000000)" fill-rule="nonzero">
            <g id="帮助" transform="translate(655.000000, 1416.000000)">
                <rect id="矩形" fill="#000000" opacity="0" x="0" y="0" width="24" height="24"></rect>
                <g id="编组-3" transform="translate(4.000000, 4.000000)">
                    <path d="M7.30709006,12.9994678 L8.69095124,12.9994678 L8.69095124,11.6498168 L7.30709006,11.6498168 L7.30709006,12.9994678 Z M9.42953435,8.77043378 C8.73711269,9.22063671 8.41447366,9.75992237 8.41447364,10.3451862 L8.41447364,10.7498899 L7.30659899,10.7498899 L7.30659899,10.2551456 C7.26043754,9.44525925 7.67589055,8.72541348 8.41398257,8.18516995 C9.24390642,7.60086401 9.65935941,7.01560018 9.56703652,6.47535665 C9.47471362,5.66594923 9.01359027,5.21574629 8.13701391,5.17072601 C7.12195322,5.12570571 6.47618407,5.71096954 6.24586792,6.92555959 L5,6.61041754 C5.36929156,4.81104259 6.52234551,3.95613594 8.36782113,4.00115624 C9.98248953,4.09119684 10.8129044,4.85606289 10.9970591,6.3407747 C11.0437116,7.24070165 10.5359358,8.050588 9.42904326,8.77043378 L9.42953435,8.77043378 Z" id="形状" fill="#999999"></path>
                    <path d="M0,7.99920167 C0,12.3995609 3.59973387,15.9994678 8,15.9994678 C12.4002661,15.9994678 16,12.3990287 16,7.99920167 C16,3.59937464 12.4007984,-1.95399252e-14 8,-1.95399252e-14 C3.59973387,-1.95399252e-14 0,3.59937464 0,7.99920167 Z" id="路径" stroke="#979797" stroke-width="1.5"></path>
                </g>
            </g>
        </g>
    </g>
</svg>